<svg width="560" height="300" viewBox="0 0 560 300" fill="none" xmlns="http://www.w3.org/2000/svg">
<g clip-path="url(#clip0_607_15)">
<path opacity="0.1" d="M517.064 237.227C516.44 238.581 515.818 239.916 515.198 241.233C514.23 243.279 513.275 245.286 512.332 247.253C511.912 248.125 511.493 248.98 511.084 249.835C506.459 259.347 502.141 267.759 498.473 274.678C495.145 280.947 490.204 286.199 484.166 289.885C478.129 293.571 471.218 295.554 464.158 295.628L382.603 296.521H381.743L374.752 296.597L368.772 296.662L350.433 296.862H349.691L340.356 296.965H340.071L282.528 297.593L231.165 298.134L225.19 298.199L188.083 298.605H188.04L163.975 298.865H163.717L87.6209 299.694L64.8567 299.943C59.9988 299.998 55.1613 299.3 50.5142 297.875C42.4271 295.416 35.1592 290.783 29.4924 284.476C19.7155 273.633 12.59 260.982 7.80374 247.253C7.11179 245.272 6.46646 243.265 5.86773 241.233C-10.7012 184.852 9.49775 112.11 45.8516 63.4321C47.3753 61.3966 48.9241 59.4117 50.498 57.4772L50.5357 57.4339C61.7161 43.6187 74.2517 32.0771 87.6048 23.8702C111.267 9.30249 137.484 5.19906 163.27 17.4282C185.088 27.7788 205.459 32.6455 225.206 33.9664C227.201 34.0963 229.197 34.1938 231.181 34.2533C276.478 35.6879 318.93 19.2579 368.783 8.65287C370.767 8.23062 372.757 7.81378 374.763 7.41859C410.326 0.294426 449.777 -3.46254 496.693 4.43576C501.567 5.23731 506.377 6.39526 511.084 7.90039C513.153 8.57167 515.146 9.29347 517.064 10.0658C539.457 19.2363 551.67 36.1805 556.86 57.4123C557.351 59.3828 557.776 61.3876 558.135 63.4267C567.336 114.498 540.388 186.941 517.064 237.227Z" fill="#E2B5C6"/>
<g opacity="0.1">
<path opacity="0.1" d="M87.6043 23.8679V299.751L64.8401 300C59.9822 300.055 55.1448 299.358 50.4976 297.932V57.4316H50.5352C61.7156 43.6001 74.2513 32.0585 87.6043 23.8679Z" fill="#B51B8A"/>
<path opacity="0.1" d="M558.161 63.4298H45.8511C47.3748 61.3943 48.9236 59.4094 50.4975 57.4749V57.4316H556.886C557.378 59.3913 557.802 61.3907 558.161 63.4298Z" fill="#B51B8A"/>
<path opacity="0.1" d="M517.064 10.0689V241.225H515.197C514.229 243.272 513.274 245.278 512.331 247.245C511.912 248.117 511.492 248.972 511.083 249.827V7.88184C513.152 8.55311 515.145 9.28212 517.064 10.0689Z" fill="#B51B8A"/>
<path opacity="0.1" d="M374.762 7.40015V296.616L368.782 296.681V8.63442C370.766 8.21217 372.756 7.79533 374.762 7.40015Z" fill="#B51B8A"/>
<path opacity="0.1" d="M231.18 34.2349V298.186L225.206 298.251V33.948C227.201 34.0779 229.196 34.1537 231.18 34.2349Z" fill="#B51B8A"/>
<path opacity="0.1" d="M515.198 241.231C514.23 243.277 513.274 245.284 512.331 247.251H7.80319C7.11125 245.269 6.46591 243.263 5.86719 241.231H515.198Z" fill="#B51B8A"/>
</g>
<path d="M124.012 143.907H113.794V175.121H124.012V143.907Z" fill="#3F3D56"/>
<path d="M398.994 142.283H388.776V175.305H398.994V142.283Z" fill="#3F3D56"/>
<path d="M464.157 288.892V295.929L382.458 296.687L381.586 296.703L350.535 296.99L349.793 297.001L340.355 297.082H340.075L282.544 297.618L188.104 298.501H188.024L164.012 298.728L163.754 298.733L57.0583 299.719V291.598L82.1457 276.441L132.482 276.018L133.557 276.013L133.912 276.007L134.988 275.991L159.156 275.791L160.237 275.786L160.581 275.78L161.656 275.775L169.406 275.71L169.61 275.704L188.728 275.542H188.884L338.064 274.275L341.715 274.248H342.081L344.867 274.221L365.114 274.053L366.19 274.037L367.185 274.026H367.701L373.998 273.977L375.246 273.961L376.919 273.95L382.162 273.902L390.481 273.831L391.557 273.82L393.428 273.81H393.778L433.955 273.463L464.157 288.892Z" fill="#65617D"/>
<path opacity="0.2" d="M464.157 288.892V295.929L382.458 296.687L381.586 296.703L350.535 296.99L349.793 297.001L340.355 297.082H340.075L282.544 297.618L188.104 298.501H188.024L164.012 298.728L163.754 298.733L57.0583 299.719V291.598L82.1457 276.441L132.482 276.018L133.557 276.013L133.912 276.007L134.988 275.991L159.156 275.791L160.237 275.786L160.581 275.78L161.656 275.775L169.406 275.71L169.61 275.704L188.728 275.542H188.884L338.064 274.275L341.715 274.248H342.081L344.867 274.221L365.114 274.053L366.19 274.037L367.185 274.026H367.701L373.998 273.977L375.246 273.961L376.919 273.95L382.162 273.902L390.481 273.831L391.557 273.82L393.428 273.81H393.778L433.955 273.463L464.157 288.892Z" fill="black"/>
<path d="M159.236 261.829V275.087C159.237 275.715 159.06 276.33 158.727 276.861C158.394 277.392 157.918 277.817 157.354 278.086C156.935 278.291 156.476 278.402 156.01 278.411L137.241 278.812C136.74 278.824 136.243 278.718 135.789 278.503C135.216 278.238 134.73 277.813 134.39 277.279C134.049 276.744 133.869 276.123 133.869 275.488V261.829H159.236Z" fill="#3F3D56"/>
<path opacity="0.1" d="M159.236 261.829V275.087C159.237 275.715 159.06 276.33 158.727 276.861C158.394 277.392 157.918 277.817 157.354 278.086C156.935 278.291 156.476 278.402 156.01 278.411L137.241 278.812C136.74 278.824 136.243 278.718 135.789 278.503C135.216 278.238 134.73 277.813 134.39 277.279C134.049 276.744 133.869 276.123 133.869 275.488V261.829H159.236Z" fill="black"/>
<path d="M160.312 261.829V275.087C160.312 275.715 160.135 276.33 159.802 276.861C159.469 277.392 158.993 277.817 158.43 278.086C158.01 278.291 157.551 278.402 157.085 278.411L138.317 278.812C137.815 278.824 137.318 278.718 136.865 278.503C136.291 278.238 135.805 277.813 135.465 277.279C135.125 276.744 134.944 276.123 134.945 275.488V261.829H160.312Z" fill="#3F3D56"/>
<path d="M391.557 261.829H366.19V278.882H391.557V261.829Z" fill="#3F3D56"/>
<path opacity="0.1" d="M391.557 261.829H366.19V278.882H391.557V261.829Z" fill="black"/>
<path d="M390.481 261.829H365.114V278.882H390.481V261.829Z" fill="#3F3D56"/>
<path opacity="0.1" d="M124.012 143.902V147.004L113.794 146.738V143.902H124.012Z" fill="black"/>
<path d="M191.267 56.5169L178.989 145.298C178.911 145.865 178.628 146.384 178.195 146.754C177.761 147.125 177.207 147.321 176.639 147.307L78.333 144.741L76.4669 144.692C76.142 144.684 75.8223 144.608 75.5288 144.467C75.2353 144.327 74.9745 144.126 74.7634 143.877C74.5523 143.628 74.3957 143.337 74.3037 143.024C74.2118 142.71 74.1865 142.38 74.2297 142.056L88.013 49.1167C88.1018 48.541 88.4019 48.0198 88.8539 47.6559C89.306 47.2921 89.8771 47.1122 90.4545 47.1516L189.115 53.8751C189.434 53.8937 189.745 53.9785 190.029 54.1242C190.313 54.2698 190.564 54.4732 190.766 54.7214C190.968 54.9696 191.117 55.2574 191.203 55.5664C191.289 55.8754 191.311 56.1991 191.267 56.5169V56.5169Z" fill="#65617D"/>
<path d="M94.6116 53.6802L84.2163 135.603L174.563 138.488L185.674 59.451L94.6116 53.6802Z" fill="#B51B8A"/>
<path d="M314.031 52.4136H209.696C208.113 52.4136 206.83 53.7054 206.83 55.299V143.36C206.83 144.954 208.113 146.246 209.696 146.246H314.031C315.614 146.246 316.897 144.954 316.897 143.36V55.299C316.897 53.7054 315.614 52.4136 314.031 52.4136Z" fill="#65617D"/>
<path d="M312.052 58.731H212.025V136.864H312.052V58.731Z" fill="#B51B8A"/>
<path opacity="0.1" d="M398.994 142.278V144.329L388.776 144.54V142.278H398.994Z" fill="black"/>
<path d="M445.098 140.545C445.113 140.77 445.082 140.994 445.008 141.207C444.934 141.419 444.818 141.613 444.667 141.779C444.517 141.945 444.334 142.079 444.131 142.172C443.928 142.265 443.708 142.315 443.485 142.321L342.812 144.416C342.394 144.425 341.988 144.274 341.676 143.994C341.364 143.713 341.168 143.325 341.129 142.906L332.476 52.3484C332.455 52.1238 332.479 51.8971 332.547 51.6821C332.616 51.4671 332.726 51.2683 332.873 51.0977C333.02 50.9271 333.2 50.7883 333.401 50.6897C333.603 50.5911 333.823 50.5348 334.047 50.5241L433.955 45.522L435.031 45.4679C435.458 45.4452 435.878 45.5906 436.201 45.8734C436.524 46.1562 436.725 46.5543 436.762 46.9837L445.098 140.545Z" fill="#65617D"/>
<path d="M338.225 55.8457L429.47 51.3308L437.177 133.616L346.652 135.781L338.225 55.8457Z" fill="#B51B8A"/>
<path opacity="0.1" d="M445.098 140.545C445.113 140.77 445.082 140.994 445.008 141.207C444.934 141.419 444.818 141.613 444.668 141.779C444.517 141.945 444.335 142.079 444.131 142.172C443.928 142.265 443.708 142.315 443.485 142.321L433.956 45.522L435.031 45.4679C435.459 45.4452 435.878 45.5906 436.201 45.8734C436.524 46.1562 436.726 46.5543 436.763 46.9837L445.098 140.545Z" fill="black"/>
<path opacity="0.1" d="M90.4707 47.1461L78.333 144.741L76.4669 144.692C76.142 144.684 75.8223 144.608 75.5288 144.467C75.2353 144.327 74.9745 144.125 74.7634 143.877C74.5523 143.628 74.3957 143.337 74.3037 143.023C74.2118 142.71 74.1865 142.38 74.2297 142.056L88.013 49.1166C88.1008 48.5369 88.4027 48.012 88.8583 47.6466C89.314 47.2813 89.8898 47.1026 90.4707 47.1461V47.1461Z" fill="black"/>
<path opacity="0.1" d="M124.012 165.875H113.794V175.121H124.012V165.875Z" fill="black"/>
<path opacity="0.1" d="M160.312 261.824V264.515L134.945 265.197V261.824H160.312Z" fill="black"/>
<path d="M205.082 169.096V260.151C205.076 260.707 204.857 261.239 204.472 261.637C204.086 262.035 203.563 262.269 203.012 262.29L99.9463 265.05H99.9194C99.3582 265.043 98.8219 264.816 98.425 264.416C98.0282 264.017 97.8021 263.477 97.7952 262.912V169.096C97.8021 168.531 98.0282 167.991 98.425 167.592C98.8219 167.192 99.3582 166.965 99.9194 166.958H202.958C203.519 166.965 204.055 167.192 204.452 167.592C204.849 167.991 205.075 168.531 205.082 169.096V169.096Z" fill="#65617D"/>
<path opacity="0.1" d="M99.9463 166.958V265.05H99.9194C99.3582 265.043 98.8219 264.816 98.425 264.416C98.0282 264.017 97.8021 263.477 97.7952 262.912V169.096C97.8021 168.531 98.0282 167.991 98.425 167.592C98.8219 167.192 99.3582 166.965 99.9194 166.958H99.9463Z" fill="black"/>
<path d="M104.652 172.772H200.108V253.027L104.652 255.193V172.772Z" fill="#D4DFEC"/>
<path opacity="0.1" d="M398.994 165.875H388.776V175.305H398.994V165.875Z" fill="black"/>
<path opacity="0.1" d="M390.481 261.824V265.294L365.114 264.612V261.824H390.481Z" fill="black"/>
<path d="M423.958 169.096V262.912C423.951 263.482 423.721 264.026 423.319 264.426C422.916 264.826 422.373 265.05 421.807 265.05V265.05L318.72 262.29C318.168 262.269 317.646 262.035 317.26 261.637C316.875 261.239 316.656 260.707 316.65 260.151V169.096C316.657 168.531 316.883 167.991 317.28 167.592C317.676 167.192 318.213 166.965 318.774 166.958H421.812C422.377 166.959 422.919 167.184 423.321 167.584C423.722 167.984 423.951 168.527 423.958 169.096V169.096Z" fill="#65617D"/>
<path opacity="0.1" d="M423.958 169.096V262.912C423.951 263.482 423.721 264.026 423.319 264.426C422.916 264.826 422.373 265.05 421.807 265.05V265.05V166.958C422.373 166.958 422.916 167.182 423.319 167.582C423.721 167.983 423.951 168.526 423.958 169.096Z" fill="black"/>
<path d="M417.101 172.772H321.646V253.027L417.101 255.193V172.772Z" fill="#D4DFEC"/>
<path d="M313.982 169.096V260.151C313.976 260.707 313.757 261.239 313.372 261.637C312.986 262.035 312.464 262.269 311.912 262.29L208.846 265.05C208.281 265.05 207.737 264.826 207.335 264.426C206.932 264.026 206.702 263.482 206.695 262.912V169.096C206.702 168.531 206.928 167.991 207.325 167.592C207.722 167.192 208.258 166.965 208.82 166.958H311.858C312.419 166.965 312.955 167.192 313.352 167.592C313.749 167.991 313.975 168.531 313.982 169.096V169.096Z" fill="#65617D"/>
<path d="M213.552 172.772H309.008V253.027L213.552 255.193V172.772Z" fill="#D4DFEC"/>
<path opacity="0.1" d="M464.157 288.892V295.929L382.458 296.687L381.586 296.703L350.535 296.99L349.793 297.001L340.355 297.082H340.075L282.544 297.618L188.104 298.501H188.024L164.012 298.728L163.754 298.733L57.0583 299.719V291.598L165.964 290.878H166.222L188.266 290.727H188.368L340.602 289.714H340.758L340.85 289.709H341.102L343.678 289.693H344.464L384.523 289.422L386.889 289.411L387.416 289.406L464.157 288.892Z" fill="black"/>
<path d="M262.038 175.121C277.284 175.121 289.642 162.681 289.642 147.334C289.642 131.987 277.284 119.546 262.038 119.546C246.793 119.546 234.434 131.987 234.434 147.334C234.434 162.681 246.793 175.121 262.038 175.121Z" fill="#FBBEBE"/>
<path d="M289.648 204.176C289.648 204.176 236.139 210.672 241.248 204.176C243.098 201.826 243.609 194.864 243.506 186.934C243.474 184.525 243.388 182.029 243.264 179.544C242.673 167.634 241.248 155.995 241.248 155.995C241.248 155.995 288.034 133.8 282.657 151.394C280.506 158.502 281.21 168.484 282.845 177.855C283.323 180.589 283.877 183.269 284.458 185.813C285.876 192.019 287.608 198.148 289.648 204.176V204.176Z" fill="#FBBEBE"/>
<path opacity="0.1" d="M289.648 204.176C289.648 204.176 236.139 210.672 241.248 204.176C243.098 201.826 243.609 194.864 243.506 186.934C251.664 183.426 262.044 186.04 262.044 186.04C272.971 183.848 279.978 184.276 284.458 185.813C285.876 192.019 287.608 198.148 289.648 204.176V204.176Z" fill="black"/>
<path d="M188.083 299.112V298.657L282.528 297.624L340.07 297.082H340.231L340.172 297.883L340.253 297.082H340.355V296.99L341.092 289.709L341.371 286.953L341.457 286.093L341.533 285.373L344.856 274.216L348.18 263.075L350.976 253.693L355.246 239.358C355.246 239.358 352.826 233.674 351.482 232.05C350.137 230.426 348.793 219.328 348.793 219.328C348.793 219.328 337.316 208.322 332.299 207.056C330.196 206.514 326.045 205.794 321.635 204.89C319.984 204.555 318.29 204.197 316.66 203.808C315.741 203.596 314.837 203.374 313.971 203.152C312.286 202.729 310.626 202.212 308.997 201.604C308.143 201.292 307.33 200.876 306.577 200.365C302.624 197.447 292.718 197.116 292.337 197.116C292.336 197.104 292.336 197.091 292.337 197.079V197.03C292.35 196.803 292.35 196.575 292.337 196.348C292.337 196.131 292.337 195.877 292.288 195.59C292.288 195.503 292.288 195.411 292.251 195.319C292.224 195.124 292.191 194.919 292.143 194.702C292.127 194.605 292.105 194.509 292.078 194.415C291.923 193.763 291.697 193.129 291.406 192.526C291.369 192.439 291.32 192.347 291.277 192.261C291.014 191.76 290.708 191.284 290.363 190.837C290.293 190.745 290.218 190.647 290.137 190.555C289.697 190.032 289.207 189.554 288.674 189.126C288.529 189.012 288.379 188.893 288.223 188.785C288.136 188.714 288.044 188.649 287.948 188.59L287.47 188.276L287.023 188.016C286.631 187.8 286.217 187.589 285.765 187.388C285.625 187.323 285.475 187.264 285.324 187.204C285.173 187.145 284.937 187.053 284.738 186.977H284.706L284.302 186.815C283.996 186.712 283.684 186.62 283.356 186.528L282.856 186.398L282.318 186.273L281.78 186.159C281.242 186.051 280.667 185.954 280.064 185.878L279.451 185.802L278.822 185.737L278.171 185.683L277.247 185.629L276.171 185.591C271.427 185.591 266.697 186.097 262.06 187.101C258.838 186.38 255.538 186.074 252.24 186.192H251.772L251.234 186.224H250.89L250.196 186.289C249.965 186.289 249.728 186.338 249.497 186.371C249.266 186.403 249.024 186.43 248.793 186.468L248.438 186.528C248.088 186.587 247.733 186.652 247.362 186.728C247.244 186.75 247.126 186.777 247.007 186.809C246.539 186.912 246.071 187.036 245.609 187.177C245.378 187.242 245.147 187.318 244.915 187.399C244.797 187.432 244.684 187.475 244.571 187.518L244.227 187.643L243.888 187.778L243.485 187.941C243.28 188.027 243.081 188.119 242.882 188.217C242.77 188.265 242.657 188.319 242.549 188.379C242.441 188.439 242.329 188.487 242.226 188.547C241.01 189.179 239.887 189.977 238.887 190.918L238.612 191.183L238.344 191.459C238.252 191.551 238.166 191.649 238.08 191.746C237.73 192.132 237.403 192.539 237.101 192.964C237.015 193.078 236.935 193.192 236.854 193.311C236.513 193.817 236.204 194.345 235.929 194.891C235.859 195.021 235.795 195.157 235.73 195.287C235.291 196.201 234.931 197.152 234.654 198.129C234.554 198.49 234.463 198.851 234.38 199.211C234.38 199.211 222.995 204.268 213.552 207.927C211.041 208.902 208.674 209.784 206.695 210.45C206.12 210.645 205.582 210.823 205.082 210.991C203.997 211.386 202.868 211.648 201.721 211.771C201.18 211.78 200.641 211.83 200.108 211.922C195.768 212.632 188.33 215.712 187.518 218.803C187.452 219.05 187.434 219.307 187.464 219.561C187.464 219.561 187.464 219.599 187.464 219.62C188.002 223.41 184.238 222.868 184.238 222.868C184.238 222.868 182.893 232.883 181.011 235.59C179.65 237.539 178.72 241.886 178.602 245.167C178.534 246.189 178.614 247.215 178.838 248.214C178.838 248.242 178.838 248.269 178.838 248.29C179.053 249.016 178.537 250.997 177.661 253.536C176.709 256.324 175.321 259.789 173.988 263.058C171.976 267.995 170.083 272.478 169.965 273.463C169.917 273.902 169.777 274.686 169.583 275.699C168.798 279.824 167.056 287.679 166.195 290.857C165.555 293.228 164.625 296.476 163.985 298.706C163.985 298.771 163.947 298.836 163.931 298.896L188.04 298.657V299.112H188.115H188.083Z" fill="#B51B8A"/>
<path opacity="0.1" d="M196.881 235.303C196.881 235.303 227.534 251.273 238.559 249.378L196.881 235.303Z" fill="black"/>
<path opacity="0.1" d="M259.263 228.807C259.263 228.807 289.11 238.551 299.059 239.905C309.008 241.258 259.263 228.807 259.263 228.807Z" fill="black"/>
<path opacity="0.1" d="M292.369 197.452C276.773 200.343 247.411 199.72 234.719 199.282C239.371 182.5 262.054 188.206 262.054 188.206C290.132 182.565 292.283 194.269 292.369 197.452Z" fill="black"/>
<path d="M292.369 196.369C276.773 199.26 247.411 198.638 234.719 198.199C239.371 181.417 262.054 187.123 262.054 187.123C290.132 181.482 292.283 193.186 292.369 196.369Z" fill="#B51B8A"/>
<path d="M375.155 270.356C375.155 270.356 393.525 267.514 393.886 275.634C394.246 283.754 384.517 289.427 384.517 289.427L375.155 270.356Z" fill="#FBBEBE"/>
<path opacity="0.1" d="M282.845 177.855C282.055 178.211 281.247 178.525 280.425 178.797C274.628 180.811 268.782 182.841 262.678 183.577C256.574 184.313 250.169 183.664 244.845 180.6C244.286 180.282 243.748 179.929 243.232 179.544C242.64 167.634 241.215 155.995 241.215 155.995C241.215 155.995 288.002 133.8 282.624 151.394C280.484 158.502 281.21 168.484 282.845 177.855Z" fill="black"/>
<path d="M254.466 103.901C253.699 104.105 252.894 104.126 252.117 103.962C251.341 103.797 250.613 103.452 249.992 102.954L251.11 104.519C250.451 104.595 249.783 104.526 249.154 104.315C248.524 104.105 247.947 103.759 247.464 103.301C247.363 104.701 247.421 106.109 247.636 107.496C245.786 107.586 243.963 107.01 242.495 105.872C242.467 106.36 242.587 106.846 242.841 107.263C243.095 107.68 243.47 108.009 243.915 108.205C242.056 107.982 240.179 108.447 238.635 109.513C237.092 110.58 235.986 112.176 235.526 114.003L238.333 114.263C236.127 114.737 234.147 115.953 232.718 117.711C231.858 118.794 231.202 120.18 231.578 121.501C231.955 122.822 233.772 123.666 234.762 122.724C233.354 124.415 232.331 126.396 231.765 128.527C231.198 130.658 231.101 132.889 231.482 135.062C231.737 135.987 231.821 136.953 231.729 137.909C231.551 138.802 230.992 139.576 230.713 140.448C230.175 142.029 230.686 143.745 231.164 145.32L233.686 153.668C234.601 156.683 235.509 159.704 236.703 162.622C237.549 164.466 238.267 166.367 238.854 168.311C239.532 170.931 239.559 173.801 241.006 176.09C241.997 177.531 243.322 178.708 244.867 179.517C250.185 182.581 256.612 183.231 262.7 182.495C268.787 181.758 274.628 179.728 280.419 177.715C281.706 177.324 282.941 176.779 284.098 176.09C288.104 173.449 288.997 168.046 289.744 163.288C290.578 157.982 291.691 152.688 293.665 147.697C294.837 144.725 296.354 141.709 296.096 138.526C295.768 134.298 292.444 130.871 291.621 126.714C291.346 125.324 291.359 123.892 291.659 122.508C291.914 121.683 292.057 120.827 292.084 119.963C291.992 118.22 290.573 116.878 289.239 115.757C286.346 113.325 283.359 111.026 280.28 108.86C280.124 107.777 281.586 107.312 282.248 106.457C283.184 105.249 282.216 103.333 280.796 102.77C279.376 102.207 277.784 102.575 276.305 102.949C276.402 102.187 276.251 101.414 275.876 100.745C275.501 100.076 274.922 99.5465 274.224 99.2357C273.526 98.9249 272.747 98.8492 272.003 99.0197C271.259 99.1903 270.589 99.598 270.094 100.182C269.701 99.2758 269.074 98.4921 268.277 97.9131C267.481 97.3341 266.544 96.9811 265.566 96.8909C262 96.6094 261.931 99.3541 259.65 100.864C257.37 102.375 255.488 100.383 253.735 98.9318C253.413 99.7519 253.311 100.643 253.439 101.515C253.567 102.388 253.922 103.211 254.466 103.901V103.901Z" fill="#3F3D56"/>
<path d="M388.777 286.596C388.777 286.596 388.298 287.744 387.416 289.406C386.082 291.963 384.458 294.355 382.576 296.535L382.431 296.692H381.56L350.508 296.979H349.766L349.675 296.871L343.652 289.676L341.382 286.964L341.291 286.85L341.097 286.623L340.99 286.493L340.85 286.325L336.435 281.053L338.048 274.286L340.796 262.885L340.866 262.609L341.404 260.443L341.785 258.819L343.065 253.525L347.454 235.309L355.251 239.369L363.474 253.985L367.889 261.835H370.309C370.766 261.835 371.815 262.723 372.869 263.746C373.246 264.108 373.622 264.493 373.945 264.828C374.902 265.824 375.66 266.68 375.66 266.68C375.66 266.68 379.581 266.766 380.635 269.874C380.689 270.024 380.734 270.178 380.769 270.334C381.119 271.555 381.574 272.744 382.13 273.885C382.823 275.406 383.695 277.133 384.577 278.86C386.217 282.027 387.884 285.042 388.497 286.136L388.572 286.271L388.777 286.596Z" fill="#B51B8A"/>
<path opacity="0.1" d="M342.581 262.154L342.528 262.928V262.983L342.436 264.228L341.721 274.248L340.855 286.32L340.608 289.72L340.07 296.996V297.088L282.528 297.629L188.099 298.658V299.112H188.024V298.658V298.506L188.266 290.732L188.728 275.542L189.126 262.663L189.164 261.38C189.187 260.606 189.367 259.844 189.693 259.142C190.019 258.44 190.483 257.813 191.058 257.297C191.633 256.782 192.306 256.39 193.036 256.146C193.766 255.901 194.538 255.809 195.305 255.875C197.844 256.091 201.14 256.356 205.082 256.638L206.695 256.757C229.46 258.349 271.53 260.406 313.982 257.84C314.875 257.791 315.773 257.737 316.671 257.672C323.254 257.255 329.831 256.719 336.343 256.048C337.166 255.961 337.999 256.057 338.781 256.329C339.564 256.601 340.277 257.042 340.872 257.622C341.467 258.201 341.928 258.905 342.223 259.683C342.519 260.462 342.641 261.296 342.581 262.127V262.154Z" fill="black"/>
<path d="M188.083 299.112V298.657L282.528 297.623L340.07 297.082H340.231V296.99L340.769 289.714L341 286.466L341.882 274.226L342.576 264.536V264.298C342.608 263.851 342.588 263.403 342.517 262.961C342.52 262.943 342.52 262.925 342.517 262.907C342.369 261.993 342 261.13 341.441 260.395C340.849 259.63 340.073 259.03 339.187 258.652C338.301 258.273 337.333 258.127 336.375 258.229C329.863 258.901 323.286 259.437 316.703 259.853C315.805 259.918 314.907 259.972 314.015 260.021C271.562 262.56 229.492 260.503 206.728 258.939L205.114 258.819C201.172 258.538 197.876 258.278 195.337 258.056C193.941 257.937 192.551 258.344 191.434 259.197C190.318 260.049 189.555 261.288 189.293 262.674C189.238 262.967 189.206 263.264 189.196 263.562L188.83 275.558L188.33 290.754L188.094 298.527V298.679V299.134L188.083 299.112Z" fill="#3F3D56"/>
<path opacity="0.1" d="M342.743 265.949L342.081 274.248L341.097 286.618L340.85 289.714L340.312 296.649L340.28 296.996V297.088L340.199 297.889L340.258 297.088H340.102L282.56 297.629L188.099 298.658V298.506L188.362 290.732L188.9 275.542L189.244 265.446C189.261 264.871 189.421 264.31 189.708 263.814C189.996 263.318 190.402 262.902 190.89 262.604C191.499 262.228 192.211 262.057 192.923 262.116C194.052 262.208 195.44 262.317 197.058 262.436C199.688 262.631 202.931 262.858 206.706 263.096C213.697 263.54 222.468 264.017 232.519 264.406C260.484 265.489 298.236 265.852 334.095 262.69C335.709 262.55 337.376 262.393 339.005 262.236C339.65 262.171 340.3 262.295 340.877 262.593C341.04 262.675 341.195 262.773 341.339 262.885C341.807 263.227 342.178 263.686 342.415 264.217C342.469 264.323 342.514 264.433 342.549 264.547C342.711 264.996 342.777 265.473 342.743 265.949V265.949Z" fill="black"/>
<path opacity="0.1" d="M160.312 273.36V275.087C160.312 275.715 160.135 276.33 159.802 276.861C159.469 277.392 158.993 277.817 158.43 278.086L136.865 278.503C136.291 278.238 135.805 277.813 135.465 277.279C135.125 276.744 134.944 276.123 134.945 275.488V273.864L160.312 273.36Z" fill="black"/>
<path d="M160.581 279.104L132.482 279.645V274.952L160.581 274.41V279.104Z" fill="#3F3D56"/>
<path opacity="0.1" d="M160.581 279.104L132.482 279.645V274.952L160.581 274.41V279.104Z" fill="black"/>
<path d="M161.656 279.104L133.557 279.645V274.952L161.656 274.41V279.104Z" fill="#3F3D56"/>
<g opacity="0.1">
<path opacity="0.1" d="M254.686 102.126C254.161 101.439 253.812 100.632 253.67 99.7764C253.541 100.612 253.618 101.468 253.896 102.267C254.162 102.242 254.427 102.195 254.686 102.126Z" fill="black"/>
<path opacity="0.1" d="M247.857 105.72C247.755 105.057 247.689 104.388 247.658 103.717C247.658 104.383 247.658 105.054 247.658 105.726L247.857 105.72Z" fill="black"/>
<path opacity="0.1" d="M291.686 123.785C291.716 123.303 291.78 122.823 291.879 122.351C292.133 121.527 292.278 120.673 292.309 119.812C292.297 119.618 292.268 119.426 292.223 119.238C292.132 119.736 291.987 120.234 291.879 120.727C291.665 121.731 291.6 122.762 291.686 123.785Z" fill="black"/>
<path opacity="0.1" d="M280.5 107.058L281.086 107.485C281.58 107.125 282.043 106.723 282.468 106.283C282.671 106.002 282.796 105.671 282.832 105.326C282.868 104.98 282.813 104.631 282.673 104.313C282.619 104.437 282.551 104.553 282.468 104.659C281.807 105.515 280.344 105.986 280.5 107.058Z" fill="black"/>
<path opacity="0.1" d="M236.311 112.265C236.115 112.66 235.958 113.074 235.843 113.5C236.684 113.027 237.59 112.682 238.532 112.476L236.311 112.265Z" fill="black"/>
<path opacity="0.1" d="M243.726 106.375C243.373 106.179 243.035 105.957 242.716 105.709C242.702 105.924 242.719 106.139 242.764 106.348C243.085 106.333 243.406 106.342 243.726 106.375V106.375Z" fill="black"/>
<path opacity="0.1" d="M296.305 138.272C296.085 140.897 294.869 143.425 293.885 145.916C291.912 150.907 290.798 156.201 289.965 161.512C289.217 166.27 288.352 171.673 284.318 174.309C283.166 175.002 281.932 175.548 280.645 175.933C274.848 177.953 269.002 179.977 262.899 180.714C256.795 181.45 250.39 180.806 245.066 177.742C243.522 176.931 242.197 175.755 241.205 174.315C239.769 172.025 239.742 169.156 239.053 166.536C238.466 164.59 237.748 162.687 236.902 160.841C235.714 157.928 234.8 154.886 233.891 151.892C233.048 149.11 232.208 146.325 231.369 143.539C231.092 142.701 230.887 141.841 230.756 140.968C230.546 142.354 230.955 143.804 231.369 145.163C232.208 147.953 233.048 150.737 233.891 153.516C234.8 156.531 235.714 159.552 236.902 162.465C237.748 164.311 238.466 166.214 239.053 168.16C239.731 170.78 239.758 173.649 241.205 175.939C242.197 177.379 243.522 178.555 245.066 179.366C250.39 182.43 256.811 183.074 262.899 182.338C268.986 181.601 274.826 179.577 280.645 177.558C281.932 177.172 283.166 176.627 284.318 175.933C288.325 173.297 289.217 167.894 289.965 163.136C290.798 157.825 291.912 152.531 293.885 147.54C295.058 144.573 296.574 141.558 296.316 138.369C296.316 138.337 296.305 138.304 296.305 138.272Z" fill="black"/>
<path opacity="0.1" d="M231.937 136.177C231.937 136.177 231.937 136.139 231.937 136.117C232.034 135.163 231.95 134.198 231.69 133.275C231.583 132.681 231.513 132.081 231.481 131.478C231.419 132.623 231.489 133.771 231.69 134.899C231.776 135.321 231.873 135.749 231.937 136.177Z" fill="black"/>
<path opacity="0.1" d="M233.578 122.935C233.992 122.236 234.461 121.571 234.982 120.948C233.997 121.896 232.18 121.051 231.798 119.736C231.657 120.268 231.657 120.828 231.798 121.36C231.93 121.757 232.165 122.112 232.477 122.389C232.79 122.665 233.17 122.854 233.578 122.935V122.935Z" fill="black"/>
</g>
<path opacity="0.1" d="M367.894 261.829C367.894 261.829 369.599 268.055 367.894 273.468C366.19 278.882 367.894 261.829 367.894 261.829Z" fill="black"/>
<path opacity="0.1" d="M375.155 268.179C375.155 268.179 375.87 276.083 374.256 277.485C372.643 278.887 375.155 268.179 375.155 268.179Z" fill="black"/>
<path d="M107.013 185.607L161.656 185.066" stroke="#B51B8A" stroke-width="2" stroke-miterlimit="10"/>
<path d="M107.013 192.358L161.656 191.822" stroke="#B51B8A" stroke-width="2" stroke-miterlimit="10"/>
<path d="M107.013 199.114L161.656 198.573" stroke="#B51B8A" stroke-width="2" stroke-miterlimit="10"/>
</g>
<defs>
<clipPath id="clip0_607_15">
<rect width="560" height="300" fill="white"/>
</clipPath>
</defs>
</svg>
