<svg width="60" height="60" viewBox="0 0 60 60" fill="none" xmlns="http://www.w3.org/2000/svg">
<path d="M51.1917 29.9382C53.5185 26.7346 55.5279 23.3123 57.1917 19.7194C60.6605 12.0319 60.6917 5.90694 57.3167 2.53194C51.848 -2.90556 40.6917 1.0007 29.9105 8.6882C19.1292 1.0007 7.97299 -2.90556 2.50424 2.53194C-0.87076 5.90694 -0.839509 12.0319 2.62924 19.7194C4.29304 23.3123 6.30251 26.7346 8.62924 29.9382C6.30251 33.1418 4.29304 36.5641 2.62924 40.1569C-0.839509 47.8444 -0.87076 53.9694 2.50424 57.3444C4.25424 59.0944 6.59799 59.8757 9.34799 59.8757C15.098 59.8757 22.598 56.4069 29.9105 51.1882C37.223 56.4069 44.723 59.8757 50.473 59.8757C53.223 59.8757 55.5667 59.0944 57.3167 57.3444C60.6917 53.9694 60.6605 47.8444 57.1917 40.1569C55.5279 36.5641 53.5185 33.1418 51.1917 29.9382ZM50.473 5.03194C51.973 5.03194 53.098 5.37569 53.7855 6.06319C55.5355 7.84444 55.098 12.1569 52.6292 17.6569C51.3281 20.4854 49.7805 23.1938 48.0042 25.7507C46.0042 23.2819 43.7855 20.8444 41.4105 18.4382C39.0355 16.0319 36.598 13.9069 34.0667 11.8444C40.9105 7.18819 46.7855 5.03194 50.473 5.03194ZM44.9417 29.9382C42.7532 32.7367 40.3945 35.398 37.8792 37.9069C35.3536 40.4142 32.6934 42.7823 29.9105 45.0007C27.1276 42.7823 24.4674 40.4142 21.9417 37.9069C19.4265 35.398 17.0678 32.7367 14.8792 29.9382C17.0678 27.1397 19.4265 24.4784 21.9417 21.9694C24.4674 19.4621 27.1276 17.0941 29.9105 14.8757C32.6934 17.0941 35.3536 19.4621 37.8792 21.9694C40.3945 24.4784 42.7532 27.1397 44.9417 29.9382ZM7.19174 17.6569C4.72299 12.1569 4.28549 7.84444 6.03549 6.06319C6.72299 5.37569 7.84799 5.03194 9.34799 5.03194C13.0355 5.03194 18.9105 7.18819 25.7542 11.8444C23.223 13.9069 20.7542 16.1257 18.4105 18.4382C16.0667 20.7507 13.8167 23.2819 11.8167 25.7507C10.0405 23.1938 8.49283 20.4854 7.19174 17.6569ZM6.03549 53.8132C4.28549 52.0319 4.72299 47.7194 7.19174 42.2194C8.49283 39.391 10.0405 36.6826 11.8167 34.1257C13.8167 36.5944 16.0355 39.0319 18.4105 41.4382C20.7855 43.8444 23.223 45.9694 25.7542 48.0319C16.1292 54.5632 8.41049 56.1882 6.03549 53.8132ZM53.7855 53.8132C53.098 54.5007 51.973 54.8444 50.473 54.8444C46.7855 54.8444 40.9105 52.6882 34.0667 48.0319C36.598 45.9694 39.0667 43.7507 41.4105 41.4382C43.7542 39.1257 46.0042 36.5944 48.0042 34.1257C49.7805 36.6826 51.3281 39.391 52.6292 42.2194C55.098 47.7194 55.5355 52.0319 53.7855 53.8132ZM33.6605 29.9382C33.6605 30.6799 33.4406 31.4049 33.0285 32.0216C32.6164 32.6383 32.0308 33.1189 31.3456 33.4027C30.6603 33.6866 29.9063 33.7608 29.1789 33.6161C28.4515 33.4714 27.7833 33.1143 27.2588 32.5898C26.7344 32.0654 26.3772 31.3972 26.2325 30.6698C26.0879 29.9424 26.1621 29.1884 26.4459 28.5031C26.7298 27.8179 27.2104 27.2322 27.8271 26.8202C28.4438 26.4081 29.1688 26.1882 29.9105 26.1882C30.9051 26.1882 31.8589 26.5833 32.5621 27.2865C33.2654 27.9898 33.6605 28.9436 33.6605 29.9382Z" fill="#FF83E4"/>
</svg>
